<?xml version="1.0" encoding="UTF-8"?>
<svg id="Layer_2" data-name="Layer 2" xmlns="http://www.w3.org/2000/svg" viewBox="0 0 91.76 108.22">
  <defs>
    <style>
      .cls-1 {
        fill: #171717;
      }
    </style>
  </defs>
  <g id="Layer_1-2" data-name="Layer 1">
    <g>
      <path class="cls-1" d="M49.95,46.7c-.7-.79-2.19-1.34-3.71-1.68-.74-.03-1.47-.11-2.2-.22l-.85,3.13c2.49,.69,5.72,1.2,6.86,.46,.17-.12,.27-.25,.3-.57,.03-.43-.09-.77-.4-1.12Zm1.62-8.06c-.21-.58-.77-1.11-1.56-1.46-1.13-.5-2.5-.53-3.85-.12l-1.28,4.68c.53,.07,1.13,.16,1.77,.3,2.31,.1,3.3,.11,3.96-.42,.84-.67,1.28-2.06,.96-2.98Zm-1.62,8.06c-.7-.79-2.19-1.34-3.71-1.68-.74-.03-1.47-.11-2.2-.22l-.85,3.13c2.49,.69,5.72,1.2,6.86,.46,.17-.12,.27-.25,.3-.57,.03-.43-.09-.77-.4-1.12Zm1.62-8.06c-.21-.58-.77-1.11-1.56-1.46-1.13-.5-2.5-.53-3.85-.12l-1.28,4.68c.53,.07,1.13,.16,1.77,.3,2.31,.1,3.3,.11,3.96-.42,.84-.67,1.28-2.06,.96-2.98Zm0,0c-.21-.58-.77-1.11-1.56-1.46-1.13-.5-2.5-.53-3.85-.12l-1.28,4.68c.53,.07,1.13,.16,1.77,.3,2.31,.1,3.3,.11,3.96-.42,.84-.67,1.28-2.06,.96-2.98Zm-1.62,8.06c-.7-.79-2.19-1.34-3.71-1.68-.74-.03-1.47-.11-2.2-.22l-.85,3.13c2.49,.69,5.72,1.2,6.86,.46,.17-.12,.27-.25,.3-.57,.03-.43-.09-.77-.4-1.12Zm1.62-8.06c-.21-.58-.77-1.11-1.56-1.46-1.13-.5-2.5-.53-3.85-.12l-1.28,4.68c.53,.07,1.13,.16,1.77,.3,2.31,.1,3.3,.11,3.96-.42,.84-.67,1.28-2.06,.96-2.98Zm-1.62,8.06c-.7-.79-2.19-1.34-3.71-1.68-.74-.03-1.47-.11-2.2-.22l-.85,3.13c2.49,.69,5.72,1.2,6.86,.46,.17-.12,.27-.25,.3-.57,.03-.43-.09-.77-.4-1.12Zm0,0c-.7-.79-2.19-1.34-3.71-1.68-.74-.03-1.47-.11-2.2-.22l-.85,3.13c2.49,.69,5.72,1.2,6.86,.46,.17-.12,.27-.25,.3-.57,.03-.43-.09-.77-.4-1.12Zm1.62-8.06c-.21-.58-.77-1.11-1.56-1.46-1.13-.5-2.5-.53-3.85-.12l-1.28,4.68c.53,.07,1.13,.16,1.77,.3,2.31,.1,3.3,.11,3.96-.42,.84-.67,1.28-2.06,.96-2.98Zm-1.62,8.06c-.7-.79-2.19-1.34-3.71-1.68-.74-.03-1.47-.11-2.2-.22l-.85,3.13c2.49,.69,5.72,1.2,6.86,.46,.17-.12,.27-.25,.3-.57,.03-.43-.09-.77-.4-1.12Zm1.62-8.06c-.21-.58-.77-1.11-1.56-1.46-1.13-.5-2.5-.53-3.85-.12l-1.28,4.68c.53,.07,1.13,.16,1.77,.3,2.31,.1,3.3,.11,3.96-.42,.84-.67,1.28-2.06,.96-2.98Zm0,0c-.21-.58-.77-1.11-1.56-1.46-1.13-.5-2.5-.53-3.85-.12l-1.28,4.68c.53,.07,1.13,.16,1.77,.3,2.31,.1,3.3,.11,3.96-.42,.84-.67,1.28-2.06,.96-2.98Zm-1.62,8.06c-.7-.79-2.19-1.34-3.71-1.68-.74-.03-1.47-.11-2.2-.22l-.85,3.13c2.49,.69,5.72,1.2,6.86,.46,.17-.12,.27-.25,.3-.57,.03-.43-.09-.77-.4-1.12Z"/>
      <path class="cls-1" d="M91.5,80.8c-.9-2.73-1.6-5.48-2.16-8.26-.05-.23-.09-.46-.13-.69-.04-.17-.07-.33-.1-.5-1.47-7.98-1.76-16.11-1.93-24.23-.01-.78-.03-1.56-.04-2.34-.07-3.8,.6-7.6,1.01-12.29-9.42,1.86-14.72-3.67-20.71-8.63-10.58-8.76-22.15-14.74-36.8-10.22-4.59,1.42-9.8,.59-14.21-1.91-1.39-.78-3.26-3-2.98-4.03,.89-3.24,.22-5.35-2.66-6.87C7.94-.69,4.05-.06,1.89,2.25-.1,4.38,.39,7.45,2.76,9.18c.78,.57,1.55,1.79,1.54,2.7-.03,3.22-.45,6.43-.63,9.65-.28,5.02-.49,10.06-.73,15.09-.73,14.96-1.47,29.93-2.18,44.9-.28,6.11-.52,12.23-.71,18.35-.09,2.74-.02,5.48-.02,8.22,.49,.04,.98,.09,1.47,.13,2.31-8.21,.95-16.9,2.47-25.28,.71,3.36,1.43,6.72,2.22,10.46,3.01-3.9,.65-9.42,5.82-11.43,.29-.12,.26-1.1,.34-1.69,.55-3.92,1.1-7.84,1.66-11.82,.27-1.98,.55-3.97,.83-5.99,.74,.22,1.46,.29,2.02,.62,7.29,4.25,14.85,7.35,23.58,6.72,7.65-.55,14.4,2.25,20.7,6.31,4.18,2.7,8.15,5.81,12.61,7.9,4.21,1.98,8.98,3.73,13.67,1.57,1.78-.81,5.34-.98,4.08-4.79ZM5.63,3.35c-.3,.56-1.06,.57-1.41,1.1,.03,.01-.52,.78-1.27,.28-1.03-.71,.94-2.57,1.74-2.72,.89-.18,1.37,.54,.94,1.34Zm13.35,22.87c5.08,2.05,10.38,2.54,15.79,2.2,8.1-.5,15.92,.62,23.18,4.39,2.03,1.06,4,2.52,5.52,4.22,5.54,6.2,12.71,8.64,20.65,9.55,.49,.06,1.32,.2,1.9,.57-4.04,1.36-9.68,.8-15.05-1.92-2.91-1.47-5.71-3.5-7.98-5.84-3.64-3.76-7.75-6.28-12.32-7.61-.35-.1-.71-.2-1.07-.29h-.02c-2.53-.64-5.21-.92-8.01-.86h-.09c-8.36,.17-16.65-.09-24.6-3-1.26-.46-2.82-1.74-3.24-3.04-.06-.19-.1-.38-.11-.56,1.81,.73,3.63,1.46,5.45,2.19Zm33.21,18.48c.85,.95,1.25,2.1,1.15,3.35-.09,1.22-.66,2.2-1.65,2.85-.96,.62-2.24,.85-3.6,.85-.38,0-.76-.02-1.14-.05h-.03c-.17-.01-.33-.03-.5-.05-2.48-.28-4.84-1.06-5.56-1.31l-1.31-.46,3.54-12.93c-1.57-.56-3.03-1.35-4.49-2.11,1.82,0,3.73,.18,5.5-.2l.24-.1s.06-.03,.09-.04h.03c1.51-.63,3.09-.84,4.58-.65,.35,.04,.69,.1,1.02,.19,.4,.1,.79,.24,1.16,.4,1.56,.69,2.69,1.83,3.18,3.2,.75,2.14-.07,4.86-1.92,6.33-.2,.15-.4,.29-.61,.41,.11,.1,.22,.21,.32,.32ZM10.01,79.49V22.98c.38,.57,.72,1.29,1.04,2.13,1.8,4.83,2.66,13.84,2.55,23.72,0,.26-.01,.53-.01,.79-.09,6.15-.56,12.61-1.39,18.59-.56,4.06-1.29,7.9-2.19,11.28Zm77.69-7.89c-7.64-.97-15.6,.19-21.44-6.82-4.93-5.92-11.77-9.34-19.65-9.45-9.69-.13-19.4,.38-28.54-3.7-.88-.39-1.74-1.56-1.7-2.8v-.07c3.87,1.25,7.65,2.94,11.62,3.63,4.23,.73,8.63,.57,12.95,.72,1.78,.05,3.55,.17,5.3,.34,.17,.02,.33,.03,.5,.05,.46,.05,.93,.11,1.39,.17,7.06,.96,13.63,3.29,18.89,8.85,5.2,5.51,11.55,7.88,18.77,8.71,.64,.08,1.27,.24,1.91,.37-.04,.19,.04-.19,0,0-.05,.21,.04-.21,0,0Z"/>
    </g>
  </g>
</svg>